<svg width="18" height="17" viewBox="0 0 18 17" fill="none" xmlns="http://www.w3.org/2000/svg">
<path fill-rule="evenodd" clip-rule="evenodd" d="M8.99997 14.0001L4.91559 16.1474C4.42675 16.4044 3.82212 16.2164 3.56512 15.7276C3.46278 15.5329 3.42746 15.3099 3.46464 15.0932L4.24469 10.5452L0.940356 7.32423C0.544872 6.93873 0.53678 6.30561 0.922281 5.91013C1.07579 5.75265 1.27693 5.65016 1.49457 5.61853L6.06105 4.95499L8.10324 0.817057C8.34766 0.321803 8.94728 0.118464 9.44254 0.362886C9.63975 0.460217 9.79938 0.619844 9.89671 0.817057L11.9389 4.95499L16.5054 5.61853C17.0519 5.69795 17.4306 6.20539 17.3512 6.75194C17.3196 6.96958 17.2171 7.17072 17.0596 7.32423L13.7553 10.5452L14.5353 15.0932C14.6287 15.6375 14.2631 16.1545 13.7187 16.2478C13.502 16.285 13.279 16.2497 13.0844 16.1474L8.99997 14.0001Z" fill="#0047BB"/>
</svg>
