<svg width="96" height="72" viewBox="0 0 96 72" fill="none" xmlns="http://www.w3.org/2000/svg">
<path d="M48 66C60.7025 66 71 55.7025 71 43C71 30.2975 60.7025 20 48 20C35.2975 20 25 30.2975 25 43C25 55.7025 35.2975 66 48 66Z" fill="#0047BB"/>
<path d="M48.0033 53.7429C47.0639 53.7438 46.1335 53.5596 45.2654 53.2007C44.3973 52.8418 43.6084 52.3152 42.9439 51.6512C42.2795 50.9872 41.7524 50.1986 41.393 49.3307C41.0335 48.4628 40.8486 47.5326 40.849 46.5932C40.849 44.0441 42.1764 41.3124 44.5861 38.9046C45.0507 38.44 45.5594 38.0037 46.0516 37.5818L46.0601 37.5746C44.4609 36.6434 42.7516 35.9158 40.9719 35.4086C39.1287 34.8804 37.23 34.5696 35.3145 34.4827V49.8993C35.3257 50.0524 35.3052 50.2062 35.2542 50.3511C35.2033 50.4959 35.123 50.6287 35.0185 50.7412C34.9139 50.8536 34.7873 50.9433 34.6466 51.0047C34.5058 51.066 34.3539 51.0976 34.2003 51.0976C34.0468 51.0976 33.8949 51.066 33.7541 51.0047C33.6133 50.9433 33.4867 50.8536 33.3822 50.7412C33.2776 50.6287 33.1974 50.4959 33.1464 50.3511C33.0955 50.2062 33.075 50.0524 33.0861 49.8993V33.3715C33.0861 33.0752 33.2038 32.791 33.4134 32.5815C33.6229 32.372 33.907 32.2543 34.2033 32.2543H34.2361C39.1047 32.2218 43.8812 33.5808 48.0033 36.1716C52.1364 33.5782 56.9241 32.2192 61.8033 32.2543C62.0947 32.2676 62.3705 32.3897 62.5761 32.5966C62.7818 32.8035 62.9023 33.08 62.9139 33.3715V49.8993C62.9257 50.0527 62.9056 50.207 62.855 50.3523C62.8044 50.4977 62.7242 50.631 62.6197 50.7439C62.5151 50.8569 62.3883 50.947 62.2472 51.0086C62.1062 51.0702 61.9539 51.102 61.8 51.102C61.6461 51.102 61.4938 51.0702 61.3528 51.0086C61.2117 50.947 61.0849 50.8569 60.9804 50.7439C60.8758 50.631 60.7957 50.4977 60.745 50.3523C60.6944 50.207 60.6744 50.0527 60.6861 49.8993V34.4827C58.7714 34.5698 56.8733 34.8805 55.0308 35.4086C53.2507 35.9156 51.5409 36.643 49.9412 37.5739L49.9497 37.5811C50.4413 38.003 50.9499 38.4387 51.4145 38.9033C53.8249 41.3137 55.1517 44.0448 55.1517 46.5919C55.1522 47.5309 54.9677 48.4608 54.6087 49.3285C54.2496 50.1961 53.7231 50.9845 53.0593 51.6486C52.3954 52.3127 51.6072 52.8395 50.7397 53.1989C49.8721 53.5582 48.9423 53.7431 48.0033 53.7429ZM48.0033 38.8258C47.3404 39.3167 46.7159 39.8573 46.135 40.443C44.1419 42.4716 43.0465 44.654 43.0465 46.5886C43.0465 47.9039 43.569 49.1654 44.4991 50.0954C45.4291 51.0255 46.6906 51.548 48.0059 51.548C49.3212 51.548 50.5827 51.0255 51.5128 50.0954C52.4429 49.1654 52.9654 47.9039 52.9654 46.5886C52.9417 45.5196 52.6661 44.4713 52.161 43.5289C51.5612 42.3887 50.7902 41.347 49.8748 40.4404C49.2926 39.8574 48.6669 39.3194 48.0033 38.831V38.8258Z" fill="white"/>
</svg>
