<svg width="30" height="22" viewBox="0 0 30 22" fill="none" xmlns="http://www.w3.org/2000/svg">
<path d="M15.0033 21.7429C14.0639 21.7438 13.1335 21.5596 12.2654 21.2007C11.3973 20.8418 10.6084 20.3152 9.94393 19.6512C9.27947 18.9872 8.75242 18.1986 8.39295 17.3307C8.03348 16.4628 7.84863 15.5326 7.84898 14.5932C7.84898 12.0441 9.1764 9.31238 11.5861 6.90461C12.0507 6.44001 12.5594 6.00367 13.0516 5.58178L13.0601 5.57456C11.4609 4.64343 9.75155 3.91581 7.97186 3.40861C6.12866 2.88035 4.22996 2.5696 2.31452 2.4827V17.8993C2.32568 18.0524 2.30516 18.2062 2.25423 18.3511C2.20329 18.4959 2.12304 18.6287 2.01849 18.7412C1.91393 18.8536 1.78732 18.9433 1.64655 19.0047C1.50578 19.066 1.35388 19.0976 1.20033 19.0976C1.04678 19.0976 0.894884 19.066 0.754115 19.0047C0.613347 18.9433 0.486733 18.8536 0.382179 18.7412C0.277625 18.6287 0.197376 18.4959 0.146442 18.3511C0.0955084 18.2062 0.0749832 18.0524 0.0861482 17.8993V1.37147C0.0861482 1.07519 0.203847 0.791036 0.413352 0.581531C0.622857 0.372027 0.907006 0.254328 1.20329 0.254328H1.23615C6.10468 0.221768 10.8812 1.58085 15.0033 4.17156C19.1364 1.57819 23.9241 0.219155 28.8033 0.254328C29.0947 0.267598 29.3705 0.389748 29.5761 0.596616C29.7818 0.803485 29.9023 1.08 29.9139 1.37147V17.8993C29.9257 18.0527 29.9056 18.207 29.855 18.3523C29.8044 18.4977 29.7242 18.631 29.6197 18.7439C29.5151 18.8569 29.3883 18.947 29.2472 19.0086C29.1062 19.0702 28.9539 19.102 28.8 19.102C28.6461 19.102 28.4938 19.0702 28.3528 19.0086C28.2117 18.947 28.0849 18.8569 27.9804 18.7439C27.8758 18.631 27.7957 18.4977 27.745 18.3523C27.6944 18.207 27.6744 18.0527 27.6861 17.8993V2.4827C25.7714 2.56975 23.8733 2.8805 22.0308 3.40861C20.2507 3.91558 18.5409 4.64297 16.9412 5.5739L16.9497 5.58113C17.4413 6.00301 17.9499 6.4387 18.4145 6.9033C20.8249 9.3137 22.1517 12.0448 22.1517 14.5919C22.1522 15.5309 21.9677 16.4608 21.6087 17.3285C21.2496 18.1961 20.7231 18.9845 20.0593 19.6486C19.3954 20.3127 18.6072 20.8395 17.7397 21.1989C16.8721 21.5582 15.9423 21.7431 15.0033 21.7429ZM15.0033 6.82576C14.3404 7.31667 13.7159 7.85731 13.135 8.44298C11.1419 10.4716 10.0465 12.654 10.0465 14.5886C10.0465 15.9039 10.569 17.1654 11.4991 18.0954C12.4291 19.0255 13.6906 19.548 15.0059 19.548C16.3212 19.548 17.5827 19.0255 18.5128 18.0954C19.4429 17.1654 19.9654 15.9039 19.9654 14.5886C19.9417 13.5196 19.6661 12.4713 19.161 11.5289C18.5612 10.3887 17.7902 9.34704 16.8748 8.44036C16.2926 7.85737 15.6669 7.31938 15.0033 6.83101V6.82576Z" fill="white"/>
</svg>
