<svg width="20" height="19" viewBox="0 0 20 19" fill="none" xmlns="http://www.w3.org/2000/svg">
<path fill-rule="evenodd" clip-rule="evenodd" d="M9.99997 15.0001L5.91559 17.1474C5.42675 17.4044 4.82212 17.2164 4.56512 16.7276C4.46278 16.5329 4.42746 16.3099 4.46464 16.0932L5.24469 11.5452L1.94036 8.32423C1.54487 7.93873 1.53678 7.30561 1.92228 6.91013C2.07579 6.75265 2.27693 6.65016 2.49457 6.61853L7.06105 5.95499L9.10324 1.81706C9.34766 1.3218 9.94728 1.11846 10.4425 1.36289C10.6397 1.46022 10.7994 1.61984 10.8967 1.81706L12.9389 5.95499L17.5054 6.61853C18.0519 6.69795 18.4306 7.20539 18.3512 7.75194C18.3196 7.96958 18.2171 8.17072 18.0596 8.32423L14.7553 11.5452L15.5353 16.0932C15.6287 16.6375 15.2631 17.1545 14.7187 17.2478C14.502 17.285 14.279 17.2497 14.0844 17.1474L9.99997 15.0001Z" stroke="#0047BB" stroke-width="1.5"/>
</svg>
